<?xml version="1.0" encoding="UTF-8" standalone="no"?>
<svg xmlns="http://www.w3.org/2000/svg" viewBox="0 0 22.5729 22.1329"
  style="fill-rule:evenodd;clip-rule:evenodd;shape-rendering:geometricPrecision">
 <defs>
  <style type="text/css">
    .str0 {stroke:#1F1A17;stroke-width:0.0358884}
    .str2 {stroke:#1F1A17;stroke-width:0.0941953}
    .str1 {stroke:#1F1A17;stroke-width:0.332321}
    .fil4 {fill:#1F1A17}
    .fil0 {fill:#DA251D}
    .fil1 {fill:white}
  </style>
 </defs>
 <g>
   <!-- Calendar body (red header + rounded rect) -->
   <path d="m1.8597 22.115h18.854c1.013 0 1.8418-0.81385 1.8418-1.8087v-15.169c0-0.99484-0.82873-1.8087-1.8418-1.8087h-1.2663v2.1192c0 0.44474-0.36388 0.80862-0.80862 0.80862h-3.0793c-0.44474 0-0.80862-0.36388-0.80862-0.80862v-2.1192h-7.0021v2.1194c0 0.44474-0.36388 0.80862-0.80862 0.80862h-3.0793c-0.44474 0-0.80862-0.36388-0.80862-0.80862v-2.1194h-1.192c-1.013 0-1.8418 0.81385-1.8418 1.8087v15.169c0 0.99484 0.82873 1.8087 1.8418 1.8087z" class="fil0 str0"/>
   <!-- White content area -->
   <path d="m2.8789 20.8h16.81c0.93107 0 1.6928-0.57388 1.6928-1.2754v-11.64h-20.195v11.64c0 0.70152 0.76171 1.2754 1.6928 1.2754z" class="fil1 str1"/>
   <!-- Left binding clip -->
   <rect class="fil4 str2" rx="1.203" ry="1.203" height="5.575" width="2.9342" y=".047098" x="3.9243"/>
   <!-- Right binding clip -->
   <rect class="fil4 str2" rx="1.203" ry="1.203" height="5.575" width="2.9342" y=".047145" x="15.622"/>
 </g>
</svg>